<?xml version="1.0" encoding="utf-8" standalone="no"?>
<!DOCTYPE svg PUBLIC "-//W3C//DTD SVG 1.1//EN"
  "http://www.w3.org/Graphics/SVG/1.1/DTD/svg11.dtd">
<svg xmlns:xlink="http://www.w3.org/1999/xlink" width="387.29492pt" height="136.910312pt" viewBox="0 0 387.29492 136.910312" xmlns="http://www.w3.org/2000/svg" version="1.1">
 <metadata>
  <rdf:RDF xmlns:dc="http://purl.org/dc/elements/1.1/" xmlns:cc="http://creativecommons.org/ns#" xmlns:rdf="http://www.w3.org/1999/02/22-rdf-syntax-ns#">
   <cc:Work>
    <dc:type rdf:resource="http://purl.org/dc/dcmitype/StillImage"/>
    <dc:date>2026-06-05T09:31:59.844087</dc:date>
    <dc:format>image/svg+xml</dc:format>
    <dc:creator>
     <cc:Agent>
      <dc:title>Matplotlib v3.10.7, https://matplotlib.org/</dc:title>
     </cc:Agent>
    </dc:creator>
   </cc:Work>
  </rdf:RDF>
 </metadata>
 <defs>
  <style type="text/css">*{stroke-linejoin: round; stroke-linecap: butt}</style>
 </defs>
 <g id="figure_1">
  <g id="patch_1">
   <path d="M 0 136.910312 
L 387.29492 136.910312 
L 387.29492 0 
L 0 0 
z
" style="fill: #ffffff"/>
  </g>
  <g id="axes_1">
   <g id="patch_2">
    <path d="M 142.585469 96.28 
L 299.29612 96.28 
L 299.29612 7.2 
L 142.585469 7.2 
z
" style="fill: #ffffff"/>
   </g>
   <g id="patch_3">
    <path d="M -60.103518 16.108 
L -60.103518 16.108 
L -60.103518 16.108 
L -60.103518 16.108 
z
" clip-path="url(#p2d26c08738)" style="fill: #252624; stroke: #161616; stroke-linejoin: miter"/>
   </g>
   <g id="patch_4">
    <path d="M -60.103518 16.108 
L -60.103518 16.108 
L -60.103518 16.108 
L -60.103518 16.108 
z
" clip-path="url(#p2d26c08738)" style="fill: #a6ae8d; stroke: #161616; stroke-linejoin: miter"/>
   </g>
   <g id="matplotlib.axis_1">
    <g id="xtick_1">
     <g id="line2d_1">
      <defs>
       <path id="m536409c4ea" d="M 0 0 
L 0 3.5 
" style="stroke: #000000; stroke-width: 0.8"/>
      </defs>
      <g>
       <use xlink:href="#m536409c4ea" x="150.898541" y="96.28" style="stroke: #000000; stroke-width: 0.8"/>
      </g>
     </g>
     <g id="text_1">
      <!-- 0.5 -->
      <g transform="translate(142.151823 111.638281) scale(0.11 -0.11)">
       <defs>
        <path id="DejaVuSerif-30" d="M 2034 219 
Q 2513 219 2750 744 
Q 2988 1269 2988 2328 
Q 2988 3391 2750 3916 
Q 2513 4441 2034 4441 
Q 1556 4441 1318 3916 
Q 1081 3391 1081 2328 
Q 1081 1269 1318 744 
Q 1556 219 2034 219 
z
M 2034 -91 
Q 1275 -91 848 546 
Q 422 1184 422 2328 
Q 422 3475 848 4112 
Q 1275 4750 2034 4750 
Q 2797 4750 3222 4112 
Q 3647 3475 3647 2328 
Q 3647 1184 3222 546 
Q 2797 -91 2034 -91 
z
" transform="scale(0.015625)"/>
        <path id="DejaVuSerif-2e" d="M 603 325 
Q 603 500 722 622 
Q 841 744 1019 744 
Q 1191 744 1312 622 
Q 1434 500 1434 325 
Q 1434 153 1312 31 
Q 1191 -91 1019 -91 
Q 841 -91 722 29 
Q 603 150 603 325 
z
" transform="scale(0.015625)"/>
        <path id="DejaVuSerif-35" d="M 3219 4666 
L 3219 4153 
L 1081 4153 
L 1081 2816 
Q 1244 2928 1461 2984 
Q 1678 3041 1947 3041 
Q 2703 3041 3140 2622 
Q 3578 2203 3578 1478 
Q 3578 738 3136 323 
Q 2694 -91 1894 -91 
Q 1572 -91 1234 -12 
Q 897 66 544 225 
L 544 1131 
L 897 1131 
Q 925 688 1179 453 
Q 1434 219 1894 219 
Q 2388 219 2653 544 
Q 2919 869 2919 1478 
Q 2919 2084 2655 2407 
Q 2391 2731 1894 2731 
Q 1613 2731 1398 2631 
Q 1184 2531 1019 2322 
L 750 2322 
L 750 4666 
L 3219 4666 
z
" transform="scale(0.015625)"/>
       </defs>
       <use xlink:href="#DejaVuSerif-30"/>
       <use xlink:href="#DejaVuSerif-2e" transform="translate(63.623047 0)"/>
       <use xlink:href="#DejaVuSerif-35" transform="translate(95.410156 0)"/>
      </g>
     </g>
    </g>
    <g id="xtick_2">
     <g id="line2d_2">
      <g>
       <use xlink:href="#m536409c4ea" x="193.098953" y="96.28" style="stroke: #000000; stroke-width: 0.8"/>
      </g>
     </g>
     <g id="text_2">
      <!-- 0.6 -->
      <g transform="translate(184.352234 111.638281) scale(0.11 -0.11)">
       <defs>
        <path id="DejaVuSerif-36" d="M 2094 219 
Q 2534 219 2771 542 
Q 3009 866 3009 1472 
Q 3009 2078 2771 2401 
Q 2534 2725 2094 2725 
Q 1647 2725 1412 2412 
Q 1178 2100 1178 1509 
Q 1178 888 1415 553 
Q 1653 219 2094 219 
z
M 1075 2569 
Q 1288 2803 1556 2918 
Q 1825 3034 2163 3034 
Q 2859 3034 3264 2615 
Q 3669 2197 3669 1472 
Q 3669 763 3233 336 
Q 2797 -91 2069 -91 
Q 1278 -91 853 498 
Q 428 1088 428 2181 
Q 428 3406 931 4078 
Q 1434 4750 2350 4750 
Q 2597 4750 2869 4703 
Q 3141 4656 3425 4563 
L 3425 3794 
L 3072 3794 
Q 3034 4109 2831 4275 
Q 2628 4441 2284 4441 
Q 1678 4441 1381 3981 
Q 1084 3522 1075 2569 
z
" transform="scale(0.015625)"/>
       </defs>
       <use xlink:href="#DejaVuSerif-30"/>
       <use xlink:href="#DejaVuSerif-2e" transform="translate(63.623047 0)"/>
       <use xlink:href="#DejaVuSerif-36" transform="translate(95.410156 0)"/>
      </g>
     </g>
    </g>
    <g id="xtick_3">
     <g id="line2d_3">
      <g>
       <use xlink:href="#m536409c4ea" x="235.299365" y="96.28" style="stroke: #000000; stroke-width: 0.8"/>
      </g>
     </g>
     <g id="text_3">
      <!-- 0.7 -->
      <g transform="translate(226.552646 111.638281) scale(0.11 -0.11)">
       <defs>
        <path id="DejaVuSerif-37" d="M 3609 4347 
L 1784 0 
L 1319 0 
L 3059 4153 
L 903 4153 
L 903 3578 
L 538 3578 
L 538 4666 
L 3609 4666 
L 3609 4347 
z
" transform="scale(0.015625)"/>
       </defs>
       <use xlink:href="#DejaVuSerif-30"/>
       <use xlink:href="#DejaVuSerif-2e" transform="translate(63.623047 0)"/>
       <use xlink:href="#DejaVuSerif-37" transform="translate(95.410156 0)"/>
      </g>
     </g>
    </g>
    <g id="xtick_4">
     <g id="line2d_4">
      <g>
       <use xlink:href="#m536409c4ea" x="277.499777" y="96.28" style="stroke: #000000; stroke-width: 0.8"/>
      </g>
     </g>
     <g id="text_4">
      <!-- 0.8 -->
      <g transform="translate(268.753058 111.638281) scale(0.11 -0.11)">
       <defs>
        <path id="DejaVuSerif-38" d="M 2981 1275 
Q 2981 1775 2732 2051 
Q 2484 2328 2034 2328 
Q 1584 2328 1336 2051 
Q 1088 1775 1088 1275 
Q 1088 772 1336 495 
Q 1584 219 2034 219 
Q 2484 219 2732 495 
Q 2981 772 2981 1275 
z
M 2853 3541 
Q 2853 3966 2637 4203 
Q 2422 4441 2034 4441 
Q 1650 4441 1433 4203 
Q 1216 3966 1216 3541 
Q 1216 3113 1433 2875 
Q 1650 2638 2034 2638 
Q 2422 2638 2637 2875 
Q 2853 3113 2853 3541 
z
M 2516 2484 
Q 3047 2413 3344 2092 
Q 3641 1772 3641 1275 
Q 3641 619 3225 264 
Q 2809 -91 2034 -91 
Q 1263 -91 845 264 
Q 428 619 428 1275 
Q 428 1772 725 2092 
Q 1022 2413 1556 2484 
Q 1084 2569 832 2842 
Q 581 3116 581 3541 
Q 581 4103 968 4426 
Q 1356 4750 2034 4750 
Q 2713 4750 3100 4426 
Q 3488 4103 3488 3541 
Q 3488 3116 3236 2842 
Q 2984 2569 2516 2484 
z
" transform="scale(0.015625)"/>
       </defs>
       <use xlink:href="#DejaVuSerif-30"/>
       <use xlink:href="#DejaVuSerif-2e" transform="translate(63.623047 0)"/>
       <use xlink:href="#DejaVuSerif-38" transform="translate(95.410156 0)"/>
      </g>
     </g>
    </g>
    <g id="text_5">
     <!-- Balanced accuracy -->
     <g transform="translate(163.577044 127.044062) scale(0.12 -0.12)">
      <defs>
       <path id="DejaVuSerif-42" d="M 1581 331 
L 2516 331 
Q 3078 331 3337 575 
Q 3597 819 3597 1350 
Q 3597 1878 3339 2120 
Q 3081 2363 2516 2363 
L 1581 2363 
L 1581 331 
z
M 1581 2694 
L 2375 2694 
Q 2888 2694 3123 2891 
Q 3359 3088 3359 3513 
Q 3359 3941 3123 4136 
Q 2888 4331 2375 4331 
L 1581 4331 
L 1581 2694 
z
M 353 0 
L 353 331 
L 947 331 
L 947 4331 
L 353 4331 
L 353 4666 
L 2656 4666 
Q 3363 4666 3720 4377 
Q 4078 4088 4078 3513 
Q 4078 3097 3829 2850 
Q 3581 2603 3103 2547 
Q 3697 2472 4005 2167 
Q 4313 1863 4313 1350 
Q 4313 656 3875 328 
Q 3438 0 2509 0 
L 353 0 
z
" transform="scale(0.015625)"/>
       <path id="DejaVuSerif-61" d="M 2547 1044 
L 2547 1747 
L 1806 1747 
Q 1378 1747 1168 1562 
Q 959 1378 959 997 
Q 959 650 1171 447 
Q 1384 244 1747 244 
Q 2106 244 2326 466 
Q 2547 688 2547 1044 
z
M 3122 2075 
L 3122 331 
L 3634 331 
L 3634 0 
L 2547 0 
L 2547 359 
Q 2356 128 2106 18 
Q 1856 -91 1522 -91 
Q 969 -91 644 203 
Q 319 497 319 997 
Q 319 1513 691 1797 
Q 1063 2081 1741 2081 
L 2547 2081 
L 2547 2309 
Q 2547 2688 2317 2895 
Q 2088 3103 1672 3103 
Q 1328 3103 1125 2947 
Q 922 2791 872 2484 
L 575 2484 
L 575 3156 
Q 875 3284 1158 3348 
Q 1441 3413 1709 3413 
Q 2400 3413 2761 3070 
Q 3122 2728 3122 2075 
z
" transform="scale(0.015625)"/>
       <path id="DejaVuSerif-6c" d="M 1313 331 
L 1856 331 
L 1856 0 
L 184 0 
L 184 331 
L 738 331 
L 738 4531 
L 184 4531 
L 184 4863 
L 1313 4863 
L 1313 331 
z
" transform="scale(0.015625)"/>
       <path id="DejaVuSerif-6e" d="M 263 0 
L 263 331 
L 781 331 
L 781 2988 
L 231 2988 
L 231 3322 
L 1356 3322 
L 1356 2731 
Q 1516 3069 1770 3241 
Q 2025 3413 2363 3413 
Q 2913 3413 3172 3097 
Q 3431 2781 3431 2113 
L 3431 331 
L 3944 331 
L 3944 0 
L 2356 0 
L 2356 331 
L 2853 331 
L 2853 1931 
Q 2853 2541 2703 2767 
Q 2553 2994 2175 2994 
Q 1775 2994 1565 2701 
Q 1356 2409 1356 1850 
L 1356 331 
L 1856 331 
L 1856 0 
L 263 0 
z
" transform="scale(0.015625)"/>
       <path id="DejaVuSerif-63" d="M 3291 997 
Q 3169 466 2822 187 
Q 2475 -91 1925 -91 
Q 1200 -91 759 389 
Q 319 869 319 1663 
Q 319 2459 759 2936 
Q 1200 3413 1925 3413 
Q 2241 3413 2553 3339 
Q 2866 3266 3181 3116 
L 3181 2266 
L 2847 2266 
Q 2781 2703 2561 2903 
Q 2341 3103 1931 3103 
Q 1466 3103 1228 2742 
Q 991 2381 991 1663 
Q 991 944 1227 581 
Q 1463 219 1931 219 
Q 2303 219 2525 412 
Q 2747 606 2828 997 
L 3291 997 
z
" transform="scale(0.015625)"/>
       <path id="DejaVuSerif-65" d="M 3469 1600 
L 991 1600 
L 991 1575 
Q 991 903 1244 561 
Q 1497 219 1991 219 
Q 2369 219 2611 417 
Q 2853 616 2950 1006 
L 3413 1006 
Q 3275 459 2904 184 
Q 2534 -91 1931 -91 
Q 1203 -91 761 389 
Q 319 869 319 1663 
Q 319 2450 753 2931 
Q 1188 3413 1894 3413 
Q 2647 3413 3050 2948 
Q 3453 2484 3469 1600 
z
M 2791 1931 
Q 2772 2513 2545 2808 
Q 2319 3103 1894 3103 
Q 1497 3103 1269 2806 
Q 1041 2509 991 1931 
L 2791 1931 
z
" transform="scale(0.015625)"/>
       <path id="DejaVuSerif-64" d="M 3359 331 
L 3909 331 
L 3909 0 
L 2784 0 
L 2784 519 
Q 2616 206 2355 57 
Q 2094 -91 1709 -91 
Q 1097 -91 708 395 
Q 319 881 319 1663 
Q 319 2444 706 2928 
Q 1094 3413 1709 3413 
Q 2094 3413 2355 3264 
Q 2616 3116 2784 2803 
L 2784 4531 
L 2241 4531 
L 2241 4863 
L 3359 4863 
L 3359 331 
z
M 2784 1497 
L 2784 1825 
Q 2784 2422 2554 2737 
Q 2325 3053 1888 3053 
Q 1444 3053 1217 2703 
Q 991 2353 991 1663 
Q 991 975 1217 622 
Q 1444 269 1888 269 
Q 2325 269 2554 583 
Q 2784 897 2784 1497 
z
" transform="scale(0.015625)"/>
       <path id="DejaVuSerif-20" transform="scale(0.015625)"/>
       <path id="DejaVuSerif-75" d="M 2266 3322 
L 3341 3322 
L 3341 331 
L 3884 331 
L 3884 0 
L 2766 0 
L 2766 588 
Q 2606 256 2353 82 
Q 2100 -91 1766 -91 
Q 1213 -91 952 223 
Q 691 538 691 1209 
L 691 2988 
L 172 2988 
L 172 3322 
L 1269 3322 
L 1269 1388 
Q 1269 781 1417 556 
Q 1566 331 1947 331 
Q 2347 331 2556 625 
Q 2766 919 2766 1478 
L 2766 2988 
L 2266 2988 
L 2266 3322 
z
" transform="scale(0.015625)"/>
       <path id="DejaVuSerif-72" d="M 3059 3328 
L 3059 2497 
L 2728 2497 
Q 2713 2744 2591 2866 
Q 2469 2988 2234 2988 
Q 1809 2988 1582 2694 
Q 1356 2400 1356 1850 
L 1356 331 
L 2022 331 
L 2022 0 
L 263 0 
L 263 331 
L 781 331 
L 781 2994 
L 231 2994 
L 231 3322 
L 1356 3322 
L 1356 2731 
Q 1525 3078 1790 3245 
Q 2056 3413 2438 3413 
Q 2578 3413 2733 3391 
Q 2888 3369 3059 3328 
z
" transform="scale(0.015625)"/>
       <path id="DejaVuSerif-79" d="M 1381 -609 
L 1600 -56 
L 359 2988 
L -19 2988 
L -19 3322 
L 1509 3322 
L 1509 2988 
L 978 2988 
L 1913 703 
L 2847 2988 
L 2350 2988 
L 2350 3322 
L 3597 3322 
L 3597 2988 
L 3225 2988 
L 1703 -750 
Q 1547 -1138 1356 -1280 
Q 1166 -1422 819 -1422 
Q 672 -1422 517 -1397 
Q 363 -1372 206 -1325 
L 206 -691 
L 500 -691 
Q 519 -903 608 -995 
Q 697 -1088 884 -1088 
Q 1056 -1088 1161 -992 
Q 1266 -897 1381 -609 
z
" transform="scale(0.015625)"/>
      </defs>
      <use xlink:href="#DejaVuSerif-42"/>
      <use xlink:href="#DejaVuSerif-61" transform="translate(73.486328 0)"/>
      <use xlink:href="#DejaVuSerif-6c" transform="translate(133.105469 0)"/>
      <use xlink:href="#DejaVuSerif-61" transform="translate(165.087891 0)"/>
      <use xlink:href="#DejaVuSerif-6e" transform="translate(224.707031 0)"/>
      <use xlink:href="#DejaVuSerif-63" transform="translate(289.111328 0)"/>
      <use xlink:href="#DejaVuSerif-65" transform="translate(345.117188 0)"/>
      <use xlink:href="#DejaVuSerif-64" transform="translate(404.296875 0)"/>
      <use xlink:href="#DejaVuSerif-20" transform="translate(468.310547 0)"/>
      <use xlink:href="#DejaVuSerif-61" transform="translate(500.097656 0)"/>
      <use xlink:href="#DejaVuSerif-63" transform="translate(559.716797 0)"/>
      <use xlink:href="#DejaVuSerif-63" transform="translate(615.722656 0)"/>
      <use xlink:href="#DejaVuSerif-75" transform="translate(671.728516 0)"/>
      <use xlink:href="#DejaVuSerif-72" transform="translate(736.132812 0)"/>
      <use xlink:href="#DejaVuSerif-61" transform="translate(783.935547 0)"/>
      <use xlink:href="#DejaVuSerif-63" transform="translate(843.554688 0)"/>
      <use xlink:href="#DejaVuSerif-79" transform="translate(899.560547 0)"/>
     </g>
    </g>
   </g>
   <g id="matplotlib.axis_2">
    <g id="ytick_1">
     <g id="line2d_5">
      <defs>
       <path id="m9d288bd4d9" d="M 0 0 
L -3.5 0 
" style="stroke: #000000; stroke-width: 0.8"/>
      </defs>
      <g>
       <use xlink:href="#m9d288bd4d9" x="142.585469" y="16.108" style="stroke: #000000; stroke-width: 0.8"/>
      </g>
     </g>
     <g id="text_6">
      <!-- Logistic Regression -->
      <g transform="translate(25.741875 20.208937) scale(0.11 -0.11)">
       <defs>
        <path id="DejaVuSerif-4c" d="M 353 0 
L 353 331 
L 947 331 
L 947 4331 
L 353 4331 
L 353 4666 
L 2175 4666 
L 2175 4331 
L 1581 4331 
L 1581 384 
L 3713 384 
L 3713 1166 
L 4097 1166 
L 4097 0 
L 353 0 
z
" transform="scale(0.015625)"/>
        <path id="DejaVuSerif-6f" d="M 1925 219 
Q 2388 219 2623 584 
Q 2859 950 2859 1663 
Q 2859 2375 2623 2739 
Q 2388 3103 1925 3103 
Q 1463 3103 1227 2739 
Q 991 2375 991 1663 
Q 991 950 1228 584 
Q 1466 219 1925 219 
z
M 1925 -91 
Q 1200 -91 759 389 
Q 319 869 319 1663 
Q 319 2456 758 2934 
Q 1197 3413 1925 3413 
Q 2653 3413 3092 2934 
Q 3531 2456 3531 1663 
Q 3531 869 3092 389 
Q 2653 -91 1925 -91 
z
" transform="scale(0.015625)"/>
        <path id="DejaVuSerif-67" d="M 3359 2988 
L 3359 72 
Q 3359 -644 2965 -1033 
Q 2572 -1422 1844 -1422 
Q 1516 -1422 1216 -1362 
Q 916 -1303 641 -1184 
L 641 -488 
L 941 -488 
Q 997 -813 1206 -963 
Q 1416 -1113 1806 -1113 
Q 2313 -1113 2548 -827 
Q 2784 -541 2784 72 
L 2784 519 
Q 2616 206 2355 57 
Q 2094 -91 1709 -91 
Q 1097 -91 708 395 
Q 319 881 319 1663 
Q 319 2444 706 2928 
Q 1094 3413 1709 3413 
Q 2094 3413 2355 3264 
Q 2616 3116 2784 2803 
L 2784 3322 
L 3909 3322 
L 3909 2988 
L 3359 2988 
z
M 2784 1825 
Q 2784 2422 2554 2737 
Q 2325 3053 1888 3053 
Q 1444 3053 1217 2703 
Q 991 2353 991 1663 
Q 991 975 1217 622 
Q 1444 269 1888 269 
Q 2325 269 2554 583 
Q 2784 897 2784 1497 
L 2784 1825 
z
" transform="scale(0.015625)"/>
        <path id="DejaVuSerif-69" d="M 622 4353 
Q 622 4497 726 4603 
Q 831 4709 978 4709 
Q 1122 4709 1226 4603 
Q 1331 4497 1331 4353 
Q 1331 4206 1228 4103 
Q 1125 4000 978 4000 
Q 831 4000 726 4103 
Q 622 4206 622 4353 
z
M 1356 331 
L 1900 331 
L 1900 0 
L 231 0 
L 231 331 
L 781 331 
L 781 2988 
L 231 2988 
L 231 3322 
L 1356 3322 
L 1356 331 
z
" transform="scale(0.015625)"/>
        <path id="DejaVuSerif-73" d="M 359 184 
L 359 959 
L 691 959 
Q 703 588 923 403 
Q 1144 219 1575 219 
Q 1963 219 2166 364 
Q 2369 509 2369 788 
Q 2369 1006 2220 1140 
Q 2072 1275 1594 1428 
L 1178 1569 
Q 750 1706 558 1912 
Q 366 2119 366 2438 
Q 366 2894 700 3153 
Q 1034 3413 1625 3413 
Q 1888 3413 2178 3344 
Q 2469 3275 2778 3144 
L 2778 2419 
L 2447 2419 
Q 2434 2741 2221 2922 
Q 2009 3103 1644 3103 
Q 1281 3103 1095 2975 
Q 909 2847 909 2591 
Q 909 2381 1050 2254 
Q 1191 2128 1613 1997 
L 2069 1856 
Q 2541 1709 2748 1489 
Q 2956 1269 2956 922 
Q 2956 450 2595 179 
Q 2234 -91 1600 -91 
Q 1278 -91 972 -22 
Q 666 47 359 184 
z
" transform="scale(0.015625)"/>
        <path id="DejaVuSerif-74" d="M 691 2988 
L 184 2988 
L 184 3322 
L 691 3322 
L 691 4353 
L 1269 4353 
L 1269 3322 
L 2350 3322 
L 2350 2988 
L 1269 2988 
L 1269 878 
Q 1269 456 1350 337 
Q 1431 219 1650 219 
Q 1875 219 1978 351 
Q 2081 484 2088 781 
L 2522 781 
Q 2497 328 2275 118 
Q 2053 -91 1600 -91 
Q 1103 -91 897 129 
Q 691 350 691 878 
L 691 2988 
z
" transform="scale(0.015625)"/>
        <path id="DejaVuSerif-52" d="M 3066 2316 
Q 3284 2256 3442 2114 
Q 3600 1972 3725 1716 
L 4403 331 
L 4972 331 
L 4972 0 
L 3872 0 
L 3144 1484 
Q 2934 1916 2759 2042 
Q 2584 2169 2278 2169 
L 1581 2169 
L 1581 331 
L 2241 331 
L 2241 0 
L 353 0 
L 353 331 
L 947 331 
L 947 4331 
L 353 4331 
L 353 4666 
L 2719 4666 
Q 3400 4666 3770 4341 
Q 4141 4016 4141 3419 
Q 4141 2938 3870 2661 
Q 3600 2384 3066 2316 
z
M 1581 2503 
L 2503 2503 
Q 2975 2503 3200 2726 
Q 3425 2950 3425 3419 
Q 3425 3888 3200 4109 
Q 2975 4331 2503 4331 
L 1581 4331 
L 1581 2503 
z
" transform="scale(0.015625)"/>
       </defs>
       <use xlink:href="#DejaVuSerif-4c"/>
       <use xlink:href="#DejaVuSerif-6f" transform="translate(66.40625 0)"/>
       <use xlink:href="#DejaVuSerif-67" transform="translate(126.611328 0)"/>
       <use xlink:href="#DejaVuSerif-69" transform="translate(190.625 0)"/>
       <use xlink:href="#DejaVuSerif-73" transform="translate(222.607422 0)"/>
       <use xlink:href="#DejaVuSerif-74" transform="translate(273.925781 0)"/>
       <use xlink:href="#DejaVuSerif-69" transform="translate(314.111328 0)"/>
       <use xlink:href="#DejaVuSerif-63" transform="translate(346.09375 0)"/>
       <use xlink:href="#DejaVuSerif-20" transform="translate(402.099609 0)"/>
       <use xlink:href="#DejaVuSerif-52" transform="translate(433.886719 0)"/>
       <use xlink:href="#DejaVuSerif-65" transform="translate(509.179688 0)"/>
       <use xlink:href="#DejaVuSerif-67" transform="translate(568.359375 0)"/>
       <use xlink:href="#DejaVuSerif-72" transform="translate(632.373047 0)"/>
       <use xlink:href="#DejaVuSerif-65" transform="translate(680.175781 0)"/>
       <use xlink:href="#DejaVuSerif-73" transform="translate(739.355469 0)"/>
       <use xlink:href="#DejaVuSerif-73" transform="translate(790.673828 0)"/>
       <use xlink:href="#DejaVuSerif-69" transform="translate(841.992188 0)"/>
       <use xlink:href="#DejaVuSerif-6f" transform="translate(873.974609 0)"/>
       <use xlink:href="#DejaVuSerif-6e" transform="translate(934.179688 0)"/>
      </g>
     </g>
    </g>
    <g id="ytick_2">
     <g id="line2d_6">
      <g>
       <use xlink:href="#m9d288bd4d9" x="142.585469" y="33.924" style="stroke: #000000; stroke-width: 0.8"/>
      </g>
     </g>
     <g id="text_7">
      <!-- SVC -->
      <g transform="translate(111.689688 38.103141) scale(0.11 -0.11)">
       <defs>
        <path id="DejaVuSerif-53" d="M 594 225 
L 594 1288 
L 953 1284 
Q 969 753 1261 498 
Q 1553 244 2150 244 
Q 2706 244 2998 464 
Q 3291 684 3291 1106 
Q 3291 1444 3114 1625 
Q 2938 1806 2369 1978 
L 1753 2163 
Q 1084 2366 811 2669 
Q 538 2972 538 3500 
Q 538 4094 959 4422 
Q 1381 4750 2144 4750 
Q 2469 4750 2856 4679 
Q 3244 4609 3681 4475 
L 3681 3481 
L 3328 3481 
Q 3275 3975 2998 4195 
Q 2722 4416 2156 4416 
Q 1663 4416 1405 4214 
Q 1147 4013 1147 3628 
Q 1147 3294 1340 3103 
Q 1534 2913 2163 2725 
L 2741 2553 
Q 3375 2363 3645 2067 
Q 3916 1772 3916 1275 
Q 3916 597 3481 253 
Q 3047 -91 2188 -91 
Q 1803 -91 1404 -12 
Q 1006 66 594 225 
z
" transform="scale(0.015625)"/>
        <path id="DejaVuSerif-56" d="M 1119 4331 
L 2497 750 
L 3872 4331 
L 3347 4331 
L 3347 4666 
L 4716 4666 
L 4716 4331 
L 4263 4331 
L 2597 0 
L 2059 0 
L 403 4331 
L -63 4331 
L -63 4666 
L 1638 4666 
L 1638 4331 
L 1119 4331 
z
" transform="scale(0.015625)"/>
        <path id="DejaVuSerif-43" d="M 4513 1234 
Q 4306 581 3820 245 
Q 3334 -91 2591 -91 
Q 2134 -91 1743 65 
Q 1353 222 1050 525 
Q 700 875 529 1320 
Q 359 1766 359 2328 
Q 359 3416 987 4083 
Q 1616 4750 2644 4750 
Q 3025 4750 3456 4650 
Q 3888 4550 4384 4347 
L 4384 3272 
L 4031 3272 
Q 3916 3859 3567 4137 
Q 3219 4416 2591 4416 
Q 1844 4416 1459 3886 
Q 1075 3356 1075 2328 
Q 1075 1303 1459 773 
Q 1844 244 2591 244 
Q 3113 244 3450 492 
Q 3788 741 3938 1234 
L 4513 1234 
z
" transform="scale(0.015625)"/>
       </defs>
       <use xlink:href="#DejaVuSerif-53"/>
       <use xlink:href="#DejaVuSerif-56" transform="translate(68.505859 0)"/>
       <use xlink:href="#DejaVuSerif-43" transform="translate(140.722656 0)"/>
      </g>
     </g>
    </g>
    <g id="ytick_3">
     <g id="line2d_7">
      <g>
       <use xlink:href="#m9d288bd4d9" x="142.585469" y="51.74" style="stroke: #000000; stroke-width: 0.8"/>
      </g>
     </g>
     <g id="text_8">
      <!-- Random Forest -->
      <g transform="translate(50.337188 55.919141) scale(0.11 -0.11)">
       <defs>
        <path id="DejaVuSerif-6d" d="M 3316 2675 
Q 3481 3041 3739 3227 
Q 3997 3413 4341 3413 
Q 4863 3413 5119 3089 
Q 5375 2766 5375 2113 
L 5375 331 
L 5894 331 
L 5894 0 
L 4300 0 
L 4300 331 
L 4800 331 
L 4800 2047 
Q 4800 2556 4650 2772 
Q 4500 2988 4153 2988 
Q 3769 2988 3567 2697 
Q 3366 2406 3366 1850 
L 3366 331 
L 3866 331 
L 3866 0 
L 2291 0 
L 2291 331 
L 2791 331 
L 2791 2069 
Q 2791 2566 2641 2777 
Q 2491 2988 2144 2988 
Q 1759 2988 1557 2697 
Q 1356 2406 1356 1850 
L 1356 331 
L 1856 331 
L 1856 0 
L 263 0 
L 263 331 
L 781 331 
L 781 2994 
L 231 2994 
L 231 3322 
L 1356 3322 
L 1356 2731 
Q 1516 3063 1762 3238 
Q 2009 3413 2322 3413 
Q 2709 3413 2968 3220 
Q 3228 3028 3316 2675 
z
" transform="scale(0.015625)"/>
        <path id="DejaVuSerif-46" d="M 353 0 
L 353 331 
L 947 331 
L 947 4331 
L 353 4331 
L 353 4666 
L 4172 4666 
L 4172 3628 
L 3788 3628 
L 3788 4281 
L 1581 4281 
L 1581 2719 
L 3175 2719 
L 3175 3303 
L 3559 3303 
L 3559 1753 
L 3175 1753 
L 3175 2338 
L 1581 2338 
L 1581 331 
L 2328 331 
L 2328 0 
L 353 0 
z
" transform="scale(0.015625)"/>
       </defs>
       <use xlink:href="#DejaVuSerif-52"/>
       <use xlink:href="#DejaVuSerif-61" transform="translate(77.542969 0)"/>
       <use xlink:href="#DejaVuSerif-6e" transform="translate(137.162109 0)"/>
       <use xlink:href="#DejaVuSerif-64" transform="translate(201.566406 0)"/>
       <use xlink:href="#DejaVuSerif-6f" transform="translate(265.580078 0)"/>
       <use xlink:href="#DejaVuSerif-6d" transform="translate(325.785156 0)"/>
       <use xlink:href="#DejaVuSerif-20" transform="translate(420.609375 0)"/>
       <use xlink:href="#DejaVuSerif-46" transform="translate(452.396484 0)"/>
       <use xlink:href="#DejaVuSerif-6f" transform="translate(516.28125 0)"/>
       <use xlink:href="#DejaVuSerif-72" transform="translate(576.486328 0)"/>
       <use xlink:href="#DejaVuSerif-65" transform="translate(624.289062 0)"/>
       <use xlink:href="#DejaVuSerif-73" transform="translate(683.46875 0)"/>
       <use xlink:href="#DejaVuSerif-74" transform="translate(734.787109 0)"/>
      </g>
     </g>
    </g>
    <g id="ytick_4">
     <g id="line2d_8">
      <g>
       <use xlink:href="#m9d288bd4d9" x="142.585469" y="69.556" style="stroke: #000000; stroke-width: 0.8"/>
      </g>
     </g>
     <g id="text_9">
      <!-- LightGBM -->
      <g transform="translate(78.08125 73.735141) scale(0.11 -0.11)">
       <defs>
        <path id="DejaVuSerif-68" d="M 263 0 
L 263 331 
L 781 331 
L 781 4531 
L 231 4531 
L 231 4863 
L 1356 4863 
L 1356 2731 
Q 1516 3069 1770 3241 
Q 2025 3413 2363 3413 
Q 2913 3413 3172 3097 
Q 3431 2781 3431 2113 
L 3431 331 
L 3944 331 
L 3944 0 
L 2356 0 
L 2356 331 
L 2853 331 
L 2853 1931 
Q 2853 2541 2704 2764 
Q 2556 2988 2175 2988 
Q 1775 2988 1565 2697 
Q 1356 2406 1356 1850 
L 1356 331 
L 1856 331 
L 1856 0 
L 263 0 
z
" transform="scale(0.015625)"/>
        <path id="DejaVuSerif-47" d="M 4097 3272 
Q 3988 3856 3641 4136 
Q 3294 4416 2675 4416 
Q 1869 4416 1472 3897 
Q 1075 3378 1075 2328 
Q 1075 1300 1484 772 
Q 1894 244 2688 244 
Q 3041 244 3362 331 
Q 3684 419 3975 594 
L 3975 1797 
L 3097 1797 
L 3097 2131 
L 4609 2131 
L 4609 391 
Q 4194 150 3714 29 
Q 3234 -91 2688 -91 
Q 1631 -91 995 570 
Q 359 1231 359 2328 
Q 359 3434 996 4092 
Q 1634 4750 2713 4750 
Q 3113 4750 3539 4658 
Q 3966 4566 4447 4378 
L 4447 3272 
L 4097 3272 
z
" transform="scale(0.015625)"/>
        <path id="DejaVuSerif-4d" d="M 353 0 
L 353 331 
L 947 331 
L 947 4331 
L 319 4331 
L 319 4666 
L 1678 4666 
L 3316 1344 
L 4953 4666 
L 6228 4666 
L 6228 4331 
L 5606 4331 
L 5606 331 
L 6203 331 
L 6203 0 
L 4378 0 
L 4378 331 
L 4972 331 
L 4972 3938 
L 3372 684 
L 2931 684 
L 1331 3938 
L 1331 331 
L 1925 331 
L 1925 0 
L 353 0 
z
" transform="scale(0.015625)"/>
       </defs>
       <use xlink:href="#DejaVuSerif-4c"/>
       <use xlink:href="#DejaVuSerif-69" transform="translate(66.40625 0)"/>
       <use xlink:href="#DejaVuSerif-67" transform="translate(98.388672 0)"/>
       <use xlink:href="#DejaVuSerif-68" transform="translate(162.402344 0)"/>
       <use xlink:href="#DejaVuSerif-74" transform="translate(226.806641 0)"/>
       <use xlink:href="#DejaVuSerif-47" transform="translate(266.992188 0)"/>
       <use xlink:href="#DejaVuSerif-42" transform="translate(346.875 0)"/>
       <use xlink:href="#DejaVuSerif-4d" transform="translate(420.361328 0)"/>
      </g>
     </g>
    </g>
    <g id="ytick_5">
     <g id="line2d_9">
      <g>
       <use xlink:href="#m9d288bd4d9" x="142.585469" y="87.372" style="stroke: #000000; stroke-width: 0.8"/>
      </g>
     </g>
     <g id="text_10">
      <!-- Hist Gradient Boosting -->
      <g transform="translate(7.2 91.551141) scale(0.11 -0.11)">
       <defs>
        <path id="DejaVuSerif-48" d="M 353 0 
L 353 331 
L 947 331 
L 947 4331 
L 353 4331 
L 353 4666 
L 2175 4666 
L 2175 4331 
L 1581 4331 
L 1581 2719 
L 4000 2719 
L 4000 4331 
L 3406 4331 
L 3406 4666 
L 5228 4666 
L 5228 4331 
L 4634 4331 
L 4634 331 
L 5228 331 
L 5228 0 
L 3406 0 
L 3406 331 
L 4000 331 
L 4000 2338 
L 1581 2338 
L 1581 331 
L 2175 331 
L 2175 0 
L 353 0 
z
" transform="scale(0.015625)"/>
       </defs>
       <use xlink:href="#DejaVuSerif-48"/>
       <use xlink:href="#DejaVuSerif-69" transform="translate(87.207031 0)"/>
       <use xlink:href="#DejaVuSerif-73" transform="translate(119.189453 0)"/>
       <use xlink:href="#DejaVuSerif-74" transform="translate(170.507812 0)"/>
       <use xlink:href="#DejaVuSerif-20" transform="translate(210.693359 0)"/>
       <use xlink:href="#DejaVuSerif-47" transform="translate(242.480469 0)"/>
       <use xlink:href="#DejaVuSerif-72" transform="translate(322.363281 0)"/>
       <use xlink:href="#DejaVuSerif-61" transform="translate(370.166016 0)"/>
       <use xlink:href="#DejaVuSerif-64" transform="translate(429.785156 0)"/>
       <use xlink:href="#DejaVuSerif-69" transform="translate(493.798828 0)"/>
       <use xlink:href="#DejaVuSerif-65" transform="translate(525.78125 0)"/>
       <use xlink:href="#DejaVuSerif-6e" transform="translate(584.960938 0)"/>
       <use xlink:href="#DejaVuSerif-74" transform="translate(649.365234 0)"/>
       <use xlink:href="#DejaVuSerif-20" transform="translate(689.550781 0)"/>
       <use xlink:href="#DejaVuSerif-42" transform="translate(721.337891 0)"/>
       <use xlink:href="#DejaVuSerif-6f" transform="translate(794.824219 0)"/>
       <use xlink:href="#DejaVuSerif-6f" transform="translate(855.029297 0)"/>
       <use xlink:href="#DejaVuSerif-73" transform="translate(915.234375 0)"/>
       <use xlink:href="#DejaVuSerif-74" transform="translate(966.552734 0)"/>
       <use xlink:href="#DejaVuSerif-69" transform="translate(1006.738281 0)"/>
       <use xlink:href="#DejaVuSerif-6e" transform="translate(1038.720703 0)"/>
       <use xlink:href="#DejaVuSerif-67" transform="translate(1103.125 0)"/>
      </g>
     </g>
    </g>
   </g>
   <g id="patch_5">
    <path d="M 252.519073 8.9816 
L 252.519073 16.108 
L 268.344228 16.108 
L 268.344228 8.9816 
L 252.519073 8.9816 
z
" clip-path="url(#p2d26c08738)" style="fill: #252624; stroke: #161616; stroke-linejoin: miter"/>
   </g>
   <g id="line2d_10">
    <path d="M 252.519073 12.5448 
L 252.519073 12.5448 
" clip-path="url(#p2d26c08738)" style="fill: none; stroke: #161616"/>
   </g>
   <g id="line2d_11">
    <path d="M 268.344228 12.5448 
L 268.344228 12.5448 
" clip-path="url(#p2d26c08738)" style="fill: none; stroke: #161616"/>
   </g>
   <g id="line2d_12">
    <path d="M 252.519073 10.7632 
L 252.519073 14.3264 
" clip-path="url(#p2d26c08738)" style="fill: none; stroke: #161616; stroke-linecap: square"/>
   </g>
   <g id="line2d_13">
    <path d="M 268.344228 10.7632 
L 268.344228 14.3264 
" clip-path="url(#p2d26c08738)" style="fill: none; stroke: #161616; stroke-linecap: square"/>
   </g>
   <g id="line2d_14">
    <defs>
     <path id="m59c062ba20" d="M 0 2.5 
C 0.663008 2.5 1.29895 2.236584 1.767767 1.767767 
C 2.236584 1.29895 2.5 0.663008 2.5 0 
C 2.5 -0.663008 2.236584 -1.29895 1.767767 -1.767767 
C 1.29895 -2.236584 0.663008 -2.5 0 -2.5 
C -0.663008 -2.5 -1.29895 -2.236584 -1.767767 -1.767767 
C -2.236584 -1.29895 -2.5 -0.663008 -2.5 0 
C -2.5 0.663008 -2.236584 1.29895 -1.767767 1.767767 
C -1.29895 2.236584 -0.663008 2.5 0 2.5 
z
" style="stroke: #161616"/>
    </defs>
    <g clip-path="url(#p2d26c08738)">
     <use xlink:href="#m59c062ba20" x="212.016379" y="12.5448" style="fill-opacity: 0; stroke: #161616"/>
     <use xlink:href="#m59c062ba20" x="292.172908" y="12.5448" style="fill-opacity: 0; stroke: #161616"/>
    </g>
   </g>
   <g id="patch_6">
    <path d="M 252.519073 26.7976 
L 252.519073 33.924 
L 271.072703 33.924 
L 271.072703 26.7976 
L 252.519073 26.7976 
z
" clip-path="url(#p2d26c08738)" style="fill: #252624; stroke: #161616; stroke-linejoin: miter"/>
   </g>
   <g id="line2d_15">
    <path d="M 252.519073 30.3608 
L 252.519073 30.3608 
" clip-path="url(#p2d26c08738)" style="fill: none; stroke: #161616"/>
   </g>
   <g id="line2d_16">
    <path d="M 271.072703 30.3608 
L 273.619279 30.3608 
" clip-path="url(#p2d26c08738)" style="fill: none; stroke: #161616"/>
   </g>
   <g id="line2d_17">
    <path d="M 252.519073 28.5792 
L 252.519073 32.1424 
" clip-path="url(#p2d26c08738)" style="fill: none; stroke: #161616; stroke-linecap: square"/>
   </g>
   <g id="line2d_18">
    <path d="M 273.619279 28.5792 
L 273.619279 32.1424 
" clip-path="url(#p2d26c08738)" style="fill: none; stroke: #161616; stroke-linecap: square"/>
   </g>
   <g id="line2d_19">
    <g clip-path="url(#p2d26c08738)">
     <use xlink:href="#m59c062ba20" x="212.016379" y="30.3608" style="fill-opacity: 0; stroke: #161616"/>
    </g>
   </g>
   <g id="patch_7">
    <path d="M 249.669333 44.6136 
L 249.669333 51.74 
L 273.619279 51.74 
L 273.619279 44.6136 
L 249.669333 44.6136 
z
" clip-path="url(#p2d26c08738)" style="fill: #252624; stroke: #161616; stroke-linejoin: miter"/>
   </g>
   <g id="line2d_20">
    <path d="M 249.669333 48.1768 
L 235.117467 48.1768 
" clip-path="url(#p2d26c08738)" style="fill: none; stroke: #161616"/>
   </g>
   <g id="line2d_21">
    <path d="M 273.619279 48.1768 
L 286.897857 48.1768 
" clip-path="url(#p2d26c08738)" style="fill: none; stroke: #161616"/>
   </g>
   <g id="line2d_22">
    <path d="M 235.117467 46.3952 
L 235.117467 49.9584 
" clip-path="url(#p2d26c08738)" style="fill: none; stroke: #161616; stroke-linecap: square"/>
   </g>
   <g id="line2d_23">
    <path d="M 286.897857 46.3952 
L 286.897857 49.9584 
" clip-path="url(#p2d26c08738)" style="fill: none; stroke: #161616; stroke-linecap: square"/>
   </g>
   <g id="line2d_24"/>
   <g id="patch_8">
    <path d="M 249.669333 62.4296 
L 249.669333 69.556 
L 276.347754 69.556 
L 276.347754 62.4296 
L 249.669333 62.4296 
z
" clip-path="url(#p2d26c08738)" style="fill: #252624; stroke: #161616; stroke-linejoin: miter"/>
   </g>
   <g id="line2d_25">
    <path d="M 249.669333 65.9928 
L 219.292312 65.9928 
" clip-path="url(#p2d26c08738)" style="fill: none; stroke: #161616"/>
   </g>
   <g id="line2d_26">
    <path d="M 276.347754 65.9928 
L 276.893449 65.9928 
" clip-path="url(#p2d26c08738)" style="fill: none; stroke: #161616"/>
   </g>
   <g id="line2d_27">
    <path d="M 219.292312 64.2112 
L 219.292312 67.7744 
" clip-path="url(#p2d26c08738)" style="fill: none; stroke: #161616; stroke-linecap: square"/>
   </g>
   <g id="line2d_28">
    <path d="M 276.893449 64.2112 
L 276.893449 67.7744 
" clip-path="url(#p2d26c08738)" style="fill: none; stroke: #161616; stroke-linecap: square"/>
   </g>
   <g id="line2d_29"/>
   <g id="patch_9">
    <path d="M 220.868764 80.2456 
L 220.868764 87.372 
L 246.329018 87.372 
L 246.329018 80.2456 
L 220.868764 80.2456 
z
" clip-path="url(#p2d26c08738)" style="fill: #252624; stroke: #161616; stroke-linejoin: miter"/>
   </g>
   <g id="line2d_30">
    <path d="M 220.868764 83.8088 
L 207.347655 83.8088 
" clip-path="url(#p2d26c08738)" style="fill: none; stroke: #161616"/>
   </g>
   <g id="line2d_31">
    <path d="M 246.329018 83.8088 
L 248.820474 83.8088 
" clip-path="url(#p2d26c08738)" style="fill: none; stroke: #161616"/>
   </g>
   <g id="line2d_32">
    <path d="M 207.347655 82.0272 
L 207.347655 85.5904 
" clip-path="url(#p2d26c08738)" style="fill: none; stroke: #161616; stroke-linecap: square"/>
   </g>
   <g id="line2d_33">
    <path d="M 248.820474 82.0272 
L 248.820474 85.5904 
" clip-path="url(#p2d26c08738)" style="fill: none; stroke: #161616; stroke-linecap: square"/>
   </g>
   <g id="line2d_34"/>
   <g id="patch_10">
    <path d="M 176.017834 16.108 
L 176.017834 23.2344 
L 228.636142 23.2344 
L 228.636142 16.108 
L 176.017834 16.108 
z
" clip-path="url(#p2d26c08738)" style="fill: #a6ae8d; stroke: #161616; stroke-linejoin: miter"/>
   </g>
   <g id="line2d_35">
    <path d="M 176.017834 19.6712 
L 149.70868 19.6712 
" clip-path="url(#p2d26c08738)" style="fill: none; stroke: #161616"/>
   </g>
   <g id="line2d_36">
    <path d="M 228.636142 19.6712 
L 250.053644 19.6712 
" clip-path="url(#p2d26c08738)" style="fill: none; stroke: #161616"/>
   </g>
   <g id="line2d_37">
    <path d="M 149.70868 17.8896 
L 149.70868 21.4528 
" clip-path="url(#p2d26c08738)" style="fill: none; stroke: #161616; stroke-linecap: square"/>
   </g>
   <g id="line2d_38">
    <path d="M 250.053644 17.8896 
L 250.053644 21.4528 
" clip-path="url(#p2d26c08738)" style="fill: none; stroke: #161616; stroke-linecap: square"/>
   </g>
   <g id="line2d_39"/>
   <g id="patch_11">
    <path d="M 202.062574 33.924 
L 202.062574 41.0504 
L 213.167946 41.0504 
L 213.167946 33.924 
L 202.062574 33.924 
z
" clip-path="url(#p2d26c08738)" style="fill: #a6ae8d; stroke: #161616; stroke-linejoin: miter"/>
   </g>
   <g id="line2d_40">
    <path d="M 202.062574 37.4872 
L 202.062574 37.4872 
" clip-path="url(#p2d26c08738)" style="fill: none; stroke: #161616"/>
   </g>
   <g id="line2d_41">
    <path d="M 213.167946 37.4872 
L 213.167946 37.4872 
" clip-path="url(#p2d26c08738)" style="fill: none; stroke: #161616"/>
   </g>
   <g id="line2d_42">
    <path d="M 202.062574 35.7056 
L 202.062574 39.2688 
" clip-path="url(#p2d26c08738)" style="fill: none; stroke: #161616; stroke-linecap: square"/>
   </g>
   <g id="line2d_43">
    <path d="M 213.167946 35.7056 
L 213.167946 39.2688 
" clip-path="url(#p2d26c08738)" style="fill: none; stroke: #161616; stroke-linecap: square"/>
   </g>
   <g id="line2d_44">
    <g clip-path="url(#p2d26c08738)">
     <use xlink:href="#m59c062ba20" x="183.803346" y="37.4872" style="fill-opacity: 0; stroke: #161616"/>
     <use xlink:href="#m59c062ba20" x="230.619244" y="37.4872" style="fill-opacity: 0; stroke: #161616"/>
    </g>
   </g>
   <g id="patch_12">
    <path d="M 195.275959 51.74 
L 195.275959 58.8664 
L 220.703734 58.8664 
L 220.703734 51.74 
L 195.275959 51.74 
z
" clip-path="url(#p2d26c08738)" style="fill: #a6ae8d; stroke: #161616; stroke-linejoin: miter"/>
   </g>
   <g id="line2d_45">
    <path d="M 195.275959 55.3032 
L 187.387619 55.3032 
" clip-path="url(#p2d26c08738)" style="fill: none; stroke: #161616"/>
   </g>
   <g id="line2d_46">
    <path d="M 220.703734 55.3032 
L 229.458762 55.3032 
" clip-path="url(#p2d26c08738)" style="fill: none; stroke: #161616"/>
   </g>
   <g id="line2d_47">
    <path d="M 187.387619 53.5216 
L 187.387619 57.0848 
" clip-path="url(#p2d26c08738)" style="fill: none; stroke: #161616; stroke-linecap: square"/>
   </g>
   <g id="line2d_48">
    <path d="M 229.458762 53.5216 
L 229.458762 57.0848 
" clip-path="url(#p2d26c08738)" style="fill: none; stroke: #161616; stroke-linecap: square"/>
   </g>
   <g id="line2d_49"/>
   <g id="patch_13">
    <path d="M 198.199198 69.556 
L 198.199198 76.6824 
L 208.011881 76.6824 
L 208.011881 69.556 
L 198.199198 69.556 
z
" clip-path="url(#p2d26c08738)" style="fill: #a6ae8d; stroke: #161616; stroke-linejoin: miter"/>
   </g>
   <g id="line2d_50">
    <path d="M 198.199198 73.1192 
L 186.990999 73.1192 
" clip-path="url(#p2d26c08738)" style="fill: none; stroke: #161616"/>
   </g>
   <g id="line2d_51">
    <path d="M 208.011881 73.1192 
L 213.167946 73.1192 
" clip-path="url(#p2d26c08738)" style="fill: none; stroke: #161616"/>
   </g>
   <g id="line2d_52">
    <path d="M 186.990999 71.3376 
L 186.990999 74.9008 
" clip-path="url(#p2d26c08738)" style="fill: none; stroke: #161616; stroke-linecap: square"/>
   </g>
   <g id="line2d_53">
    <path d="M 213.167946 71.3376 
L 213.167946 74.9008 
" clip-path="url(#p2d26c08738)" style="fill: none; stroke: #161616; stroke-linecap: square"/>
   </g>
   <g id="line2d_54"/>
   <g id="patch_14">
    <path d="M 196.142648 87.372 
L 196.142648 94.4984 
L 221.100354 94.4984 
L 221.100354 87.372 
L 196.142648 87.372 
z
" clip-path="url(#p2d26c08738)" style="fill: #a6ae8d; stroke: #161616; stroke-linejoin: miter"/>
   </g>
   <g id="line2d_55">
    <path d="M 196.142648 90.9352 
L 187.387619 90.9352 
" clip-path="url(#p2d26c08738)" style="fill: none; stroke: #161616"/>
   </g>
   <g id="line2d_56">
    <path d="M 221.100354 90.9352 
L 250.053644 90.9352 
" clip-path="url(#p2d26c08738)" style="fill: none; stroke: #161616"/>
   </g>
   <g id="line2d_57">
    <path d="M 187.387619 89.1536 
L 187.387619 92.7168 
" clip-path="url(#p2d26c08738)" style="fill: none; stroke: #161616; stroke-linecap: square"/>
   </g>
   <g id="line2d_58">
    <path d="M 250.053644 89.1536 
L 250.053644 92.7168 
" clip-path="url(#p2d26c08738)" style="fill: none; stroke: #161616; stroke-linecap: square"/>
   </g>
   <g id="line2d_59"/>
   <g id="line2d_60">
    <path d="M 150.898541 96.28 
L 150.898541 7.2 
" clip-path="url(#p2d26c08738)" style="fill: none; stroke-dasharray: 7.4,3.2; stroke-dashoffset: 0; stroke: #ff0000; stroke-width: 2"/>
   </g>
   <g id="line2d_61">
    <path d="M 267.429224 8.9816 
L 267.429224 16.108 
" clip-path="url(#p2d26c08738)" style="fill: none; stroke: #161616"/>
   </g>
   <g id="line2d_62">
    <path d="M 267.429224 26.7976 
L 267.429224 33.924 
" clip-path="url(#p2d26c08738)" style="fill: none; stroke: #161616"/>
   </g>
   <g id="line2d_63">
    <path d="M 262.154172 44.6136 
L 262.154172 51.74 
" clip-path="url(#p2d26c08738)" style="fill: none; stroke: #161616"/>
   </g>
   <g id="line2d_64">
    <path d="M 255.440471 62.4296 
L 255.440471 69.556 
" clip-path="url(#p2d26c08738)" style="fill: none; stroke: #161616"/>
   </g>
   <g id="line2d_65">
    <path d="M 241.544541 80.2456 
L 241.544541 87.372 
" clip-path="url(#p2d26c08738)" style="fill: none; stroke: #161616"/>
   </g>
   <g id="line2d_66">
    <path d="M 203.957539 16.108 
L 203.957539 23.2344 
" clip-path="url(#p2d26c08738)" style="fill: none; stroke: #161616"/>
   </g>
   <g id="line2d_67">
    <path d="M 206.998295 33.924 
L 206.998295 41.0504 
" clip-path="url(#p2d26c08738)" style="fill: none; stroke: #161616"/>
   </g>
   <g id="line2d_68">
    <path d="M 219.910493 51.74 
L 219.910493 58.8664 
" clip-path="url(#p2d26c08738)" style="fill: none; stroke: #161616"/>
   </g>
   <g id="line2d_69">
    <path d="M 207.835605 69.556 
L 207.835605 76.6824 
" clip-path="url(#p2d26c08738)" style="fill: none; stroke: #161616"/>
   </g>
   <g id="line2d_70">
    <path d="M 198.625198 87.372 
L 198.625198 94.4984 
" clip-path="url(#p2d26c08738)" style="fill: none; stroke: #161616"/>
   </g>
   <g id="patch_15">
    <path d="M 142.585469 96.28 
L 142.585469 7.2 
" style="fill: none; stroke: #000000; stroke-width: 0.8; stroke-linejoin: miter; stroke-linecap: square"/>
   </g>
   <g id="patch_16">
    <path d="M 142.585469 96.28 
L 299.29612 96.28 
" style="fill: none; stroke: #000000; stroke-width: 0.8; stroke-linejoin: miter; stroke-linecap: square"/>
   </g>
  </g>
  <g id="legend_1">
   <g id="text_11">
    <!-- animal_type -->
    <g transform="translate(303.91367 55.453594) scale(0.12 -0.12)">
     <defs>
      <path id="DejaVuSerif-5f" d="M 3200 -1259 
L 3200 -1509 
L 0 -1509 
L 0 -1259 
L 3200 -1259 
z
" transform="scale(0.015625)"/>
      <path id="DejaVuSerif-70" d="M 1313 1825 
L 1313 1497 
Q 1313 897 1542 583 
Q 1772 269 2209 269 
Q 2650 269 2876 622 
Q 3103 975 3103 1663 
Q 3103 2353 2876 2703 
Q 2650 3053 2209 3053 
Q 1772 3053 1542 2737 
Q 1313 2422 1313 1825 
z
M 738 2988 
L 184 2988 
L 184 3322 
L 1313 3322 
L 1313 2803 
Q 1481 3116 1742 3264 
Q 2003 3413 2388 3413 
Q 3000 3413 3387 2928 
Q 3775 2444 3775 1663 
Q 3775 881 3387 395 
Q 3000 -91 2388 -91 
Q 2003 -91 1742 57 
Q 1481 206 1313 519 
L 1313 -997 
L 1856 -997 
L 1856 -1331 
L 184 -1331 
L 184 -997 
L 738 -997 
L 738 2988 
z
" transform="scale(0.015625)"/>
     </defs>
     <use xlink:href="#DejaVuSerif-61"/>
     <use xlink:href="#DejaVuSerif-6e" transform="translate(59.619141 0)"/>
     <use xlink:href="#DejaVuSerif-69" transform="translate(124.023438 0)"/>
     <use xlink:href="#DejaVuSerif-6d" transform="translate(156.005859 0)"/>
     <use xlink:href="#DejaVuSerif-61" transform="translate(250.830078 0)"/>
     <use xlink:href="#DejaVuSerif-6c" transform="translate(310.449219 0)"/>
     <use xlink:href="#DejaVuSerif-5f" transform="translate(342.431641 0)"/>
     <use xlink:href="#DejaVuSerif-74" transform="translate(392.431641 0)"/>
     <use xlink:href="#DejaVuSerif-79" transform="translate(432.617188 0)"/>
     <use xlink:href="#DejaVuSerif-70" transform="translate(489.111328 0)"/>
     <use xlink:href="#DejaVuSerif-65" transform="translate(553.125 0)"/>
    </g>
   </g>
   <g id="patch_17">
    <path d="M 308.777498 72.14125 
L 330.777498 72.14125 
L 330.777498 64.44125 
L 308.777498 64.44125 
z
" style="fill: #252624; stroke: #161616; stroke-linejoin: miter"/>
   </g>
   <g id="text_12">
    <!-- steer -->
    <g transform="translate(339.577498 72.14125) scale(0.11 -0.11)">
     <use xlink:href="#DejaVuSerif-73"/>
     <use xlink:href="#DejaVuSerif-74" transform="translate(51.318359 0)"/>
     <use xlink:href="#DejaVuSerif-65" transform="translate(91.503906 0)"/>
     <use xlink:href="#DejaVuSerif-65" transform="translate(150.683594 0)"/>
     <use xlink:href="#DejaVuSerif-72" transform="translate(209.863281 0)"/>
    </g>
   </g>
   <g id="patch_18">
    <path d="M 308.777498 88.287187 
L 330.777498 88.287187 
L 330.777498 80.587187 
L 308.777498 80.587187 
z
" style="fill: #a6ae8d; stroke: #161616; stroke-linejoin: miter"/>
   </g>
   <g id="text_13">
    <!-- heifer -->
    <g transform="translate(339.577498 88.287187) scale(0.11 -0.11)">
     <defs>
      <path id="DejaVuSerif-66" d="M 2753 4078 
L 2450 4078 
Q 2447 4313 2317 4434 
Q 2188 4556 1941 4556 
Q 1619 4556 1487 4379 
Q 1356 4203 1356 3750 
L 1356 3322 
L 2284 3322 
L 2284 2988 
L 1356 2988 
L 1356 331 
L 2094 331 
L 2094 0 
L 231 0 
L 231 331 
L 781 331 
L 781 2988 
L 231 2988 
L 231 3322 
L 781 3322 
L 781 3738 
Q 781 4294 1070 4578 
Q 1359 4863 1919 4863 
Q 2128 4863 2337 4825 
Q 2547 4788 2753 4709 
L 2753 4078 
z
" transform="scale(0.015625)"/>
     </defs>
     <use xlink:href="#DejaVuSerif-68"/>
     <use xlink:href="#DejaVuSerif-65" transform="translate(64.404297 0)"/>
     <use xlink:href="#DejaVuSerif-69" transform="translate(123.583984 0)"/>
     <use xlink:href="#DejaVuSerif-66" transform="translate(155.566406 0)"/>
     <use xlink:href="#DejaVuSerif-65" transform="translate(192.578125 0)"/>
     <use xlink:href="#DejaVuSerif-72" transform="translate(251.757812 0)"/>
    </g>
   </g>
  </g>
 </g>
 <defs>
  <clipPath id="p2d26c08738">
   <rect x="142.585469" y="7.2" width="156.710651" height="89.08"/>
  </clipPath>
 </defs>
</svg>
